# xmcd
# 
# Track frame offsets:
#     150
#     19297
#     35720
#     60220
#     82175
#     95252
#     116705
#     130352
#     155482
#     170830
#     187410
#     195955
#     210545
#     224705
#     243625
#     263962
#     277022
#     304827
#     316610
# 
# Disc length: 4417
# 
# Revision: 20
# Processed by: cddbd v1.5.2PL0 Copyright (c) Steve Scherf et al.
# Submitted via: fre:ac v1.0.31
# 
DISCID=23113f13
DTITLE=Alligator Records - The Alligator Records 25th Anniversary Collection Disc 1
DYEAR=1996
DGENRE=Blues
TTITLE0=Son Seals - Don't Pick Me For Your Fool
TTITLE1=James Cotton - Digging My Potatoes
TTITLE2=Albert Collins and Johnny Copeland - Something To Remember You By
TTITLE3=William Clarke - The Complainer's Boogie Woogie
TTITLE4=Charlie Musselwhite - Stingaree
TTITLE5=Lil' Ed and The Blues Imperials - It's Alright
TTITLE6=C. J. Chenier and The Red Hot Louisiana Band - Man Smart, Woman Smarter
TTITLE7=Maurice John Vaughn - I Want To Be Your Spy
TTITLE8=Floyd Dixon - Hey Bartender
TTITLE9=Eddie Shaw and The Wolf Gang - Sitting On Top Of The World
TTITLE10=Cephas and Wiggins - Action Man
TTITLE11=Kenny Neal - Bayou Blood
TTITLE12=Long John Hunter - T-Bone Intentions
TTITLE13=Saffire - The Uppity Blues Women--T'Ain't Nobody's Business
TTITLE14=Lonnie Mack and Stevie Ray Vaughan - If You Have To Know
TTITLE15=Billy Boy Arnold - Been Gone Too Long
TTITLE16=Tinsley Ellis - A Quitter Never Wins
TTITLE17=Sugar Blue - I Ain't Got You
TTITLE18=Professor  Longhair - Crawfish Fiesta
EXTD=Year: 1996 [CD 1 from 2]\n\n\n\n\n\n                                                              www.alligator.com
EXTT0=
EXTT1=
EXTT2=
EXTT3=
EXTT4=
EXTT5=
EXTT6=
EXTT7=
EXTT8=
EXTT9=
EXTT10=
EXTT11=
EXTT12=
EXTT13=
EXTT14=
EXTT15=
EXTT16=
EXTT17=
EXTT18=
PLAYORDER=
